<svg xmlns="http://www.w3.org/2000/svg" width="1370" height="304" viewBox="0 0 1370 304">
  <g fill="#0D3AA2">
    <circle cx="657.25" cy="60.25" r="2.25"/>
    <circle cx="2.25" cy="88.25" r="2.25"/>
    <circle cx="805.25" cy="211.25" r="2.25"/>
    <circle cx="612.25" cy="242.25" r="2.25"/>
    <circle cx="855.25" cy="124.25" r="2.25"/>
    <circle cx="1062.25" cy="131.25" r="2.25"/>
    <circle cx="1191.25" cy="237.25" r="2.25"/>
    <circle cx="1367.25" cy="206.25" r="2.25"/>
    <circle cx="1231.25" cy="77.25" r="2.25"/>
    <circle cx="696.25" cy="180.25" r="2.25"/>
    <circle cx="398.25" cy="216.25" r="2.25"/>
    <circle cx="785.25" cy="301.25" r="2.25"/>
    <circle cx="535.25" cy="74.25" r="2.25"/>
    <circle cx="319.25" cy="62.25" r="2.25"/>
    <circle cx="725.25" cy="118.25" r="1.25"/>
    <circle cx="463.25" cy="173.25" r="1.25"/>
    <circle cx="415.25" cy="77.25" r="1.25"/>
    <circle cx="174.25" cy="101.25" r="1.25"/>
    <circle cx="87.25" cy="73.25" r="1.25"/>
    <circle cx="1195.25" cy="161.25" r="1.25"/>
    <circle cx="1268.25" cy="199.25" r="1.25"/>
    <circle cx="1317.25" cy="1.25" r="1.25"/>
    <circle cx="824.25" cy="158.25" r="1.25"/>
    <circle cx="951.25" cy="134.25" r="1.25"/>
    <circle cx="697.25" cy="264.25" r="1.25"/>
    <circle cx="1320.25" cy="163.25" r="1.25"/>
  </g>
</svg>
