<svg xmlns="http://www.w3.org/2000/svg" xmlns:xlink="http://www.w3.org/1999/xlink" width="556" height="495" viewBox="0 0 556 495">
  <defs>
    <filter id="ecommerce_buyer-a" width="184.7%" height="222.4%" x="-42.4%" y="-61.2%" filterUnits="objectBoundingBox">
      <feGaussianBlur in="SourceGraphic" stdDeviation="50"/>
    </filter>
    <linearGradient id="ecommerce_buyer-b" x1="50%" x2="50%" y1="96.796%" y2="6.327%">
      <stop offset="0%" stop-color="#F2F6FA"/>
      <stop offset="100%" stop-color="#E1E9F0"/>
    </linearGradient>
    <linearGradient id="ecommerce_buyer-e" x1="98.352%" x2="2.926%" y1="50%" y2="50%">
      <stop offset="0%" stop-color="#FFF" stop-opacity=".7"/>
      <stop offset="100%" stop-color="#FFF" stop-opacity=".9"/>
    </linearGradient>
    <rect id="ecommerce_buyer-d" width="197.847" height="194.835"/>
    <filter id="ecommerce_buyer-c" width="102%" height="102.1%" x="-1%" y="-.5%" filterUnits="objectBoundingBox">
      <feOffset dy="1" in="SourceAlpha" result="shadowOffsetOuter1"/>
      <feGaussianBlur in="shadowOffsetOuter1" result="shadowBlurOuter1" stdDeviation=".5"/>
      <feComposite in="shadowBlurOuter1" in2="SourceAlpha" operator="out" result="shadowBlurOuter1"/>
      <feColorMatrix in="shadowBlurOuter1" values="0 0 0 0 0.88627451   0 0 0 0 0.905882353   0 0 0 0 0.921568627  0 0 0 0.3 0"/>
    </filter>
    <rect id="ecommerce_buyer-f" width="77.209" height="75.368"/>
    <rect id="ecommerce_buyer-h" width="77.209" height="75.368"/>
    <rect id="ecommerce_buyer-j" width="77.209" height="75.368"/>
    <rect id="ecommerce_buyer-l" width="77.209" height="75.368"/>
    <rect id="ecommerce_buyer-o" width="179.349" height="195.637" x="240.472" y="49.711"/>
    <filter id="ecommerce_buyer-n" width="102.2%" height="102%" x="-1.1%" y="-.5%" filterUnits="objectBoundingBox">
      <feOffset dy="1" in="SourceAlpha" result="shadowOffsetOuter1"/>
      <feGaussianBlur in="shadowOffsetOuter1" result="shadowBlurOuter1" stdDeviation=".5"/>
      <feComposite in="shadowBlurOuter1" in2="SourceAlpha" operator="out" result="shadowBlurOuter1"/>
      <feColorMatrix in="shadowBlurOuter1" values="0 0 0 0 0.88627451   0 0 0 0 0.905882353   0 0 0 0 0.921568627  0 0 0 0.3 0"/>
    </filter>
    <rect id="ecommerce_buyer-q" width="435.907" height="22.45"/>
    <filter id="ecommerce_buyer-p" width="100.9%" height="117.8%" x="-.5%" y="-4.5%" filterUnits="objectBoundingBox">
      <feOffset dy="1" in="SourceAlpha" result="shadowOffsetOuter1"/>
      <feGaussianBlur in="shadowOffsetOuter1" result="shadowBlurOuter1" stdDeviation=".5"/>
      <feColorMatrix in="shadowBlurOuter1" values="0 0 0 0 0.454901961   0 0 0 0 0.521568627   0 0 0 0 0.596078431  0 0 0 0.05 0"/>
    </filter>
    <linearGradient id="ecommerce_buyer-r" x1="0%" x2="97.677%" y1="50%" y2="50%">
      <stop offset="0%" stop-color="#C8D5E2"/>
      <stop offset="100%" stop-color="#C8D5E2" stop-opacity="0"/>
    </linearGradient>
    <path id="ecommerce_buyer-s" d="M49.5659719,3.26041631 C41.3560043,0.942369686 21.0395735,-4.47576848 11.3884975,7.42146922 C5.86355663,14.2322679 4.97869355,24.8119167 6.6515012,36.1277805 C7.900787,44.5786912 11.8422052,47.522509 9.50098432,55.9276612 C0.596213176,87.8964331 -0.280389936,118.868756 0.461030305,119.248989 C9.96363109,124.137043 65.4739192,123.673833 63.4040027,107.781236 C61.9846387,96.8835106 51.241411,66.4434911 52.5795962,50.6006636 C53.6724833,37.6619306 56.4718777,38.8341866 58.5417941,31.5583685 C61.8097781,20.0713069 57.7759394,5.57846294 49.5659719,3.26041631 Z"/>
    <linearGradient id="ecommerce_buyer-t" x1="50%" x2="50%" y1="64.181%" y2="0%">
      <stop offset="0%" stop-opacity="0"/>
      <stop offset="100%" stop-color="#001751"/>
    </linearGradient>
    <path id="ecommerce_buyer-v" d="M36.0446916,26.7334663 C36.4899716,26.7334663 36.7919876,26.2851173 36.6254916,25.8715539 L34.3874755,20.2942469 C33.5356355,18.1723193 28.9655106,17.2466407 26.7391105,16.7209902 L15.3202077,13.227228 L15.4855678,0.0722038757 L0.46880542,0.0722038757 L2.66417812,26.2194109 C2.67579412,26.5595378 2.95457813,26.8262281 3.29531414,26.8262281 L36.0446916,26.7334663 Z"/>
    <path id="ecommerce_buyer-w" d="M34.789088,28.3463152 C35.2343642,28.3462598 35.5364334,27.8978693 35.3699904,27.4843231 L33.1326889,21.9072459 C32.2811207,19.7854057 30.4498771,18.2086682 28.2235619,17.68329 L14.0448393,14.3262723 L15.5133583,1.60401308 L0.980426203,2.31235555 L1.40892905,27.8364082 C1.42050255,28.1765366 1.6992509,28.4431946 2.03998395,28.4431522 L34.789088,28.3463152 Z"/>
    <linearGradient id="ecommerce_buyer-x" x1="2.201%" x2="116.991%" y1="50%" y2="50%">
      <stop offset="0%" stop-color="#152E4D" stop-opacity=".128"/>
      <stop offset="100%" stop-color="#15264D" stop-opacity="0"/>
    </linearGradient>
    <ellipse id="ecommerce_buyer-z" cx="31.233" cy="31.217" rx="31.233" ry="31.217"/>
    <filter id="ecommerce_buyer-y" width="213.7%" height="213.7%" x="-56.8%" y="-44%" filterUnits="objectBoundingBox">
      <feOffset dy="8" in="SourceAlpha" result="shadowOffsetOuter1"/>
      <feGaussianBlur in="shadowOffsetOuter1" result="shadowBlurOuter1" stdDeviation="10.5"/>
      <feColorMatrix in="shadowBlurOuter1" values="0 0 0 0 0.874509804   0 0 0 0 0.905882353   0 0 0 0 0.929411765  0 0 0 0.6 0"/>
    </filter>
    <ellipse id="ecommerce_buyer-B" cx="71.575" cy="70.238" rx="23.425" ry="23.413"/>
    <filter id="ecommerce_buyer-A" width="245.1%" height="245.2%" x="-72.6%" y="-55.5%" filterUnits="objectBoundingBox">
      <feOffset dy="8" in="SourceAlpha" result="shadowOffsetOuter1"/>
      <feGaussianBlur in="shadowOffsetOuter1" result="shadowBlurOuter1" stdDeviation="10"/>
      <feColorMatrix in="shadowBlurOuter1" values="0 0 0 0 0.874509804   0 0 0 0 0.905882353   0 0 0 0 0.929411765  0 0 0 0.6 0"/>
    </filter>
    <ellipse id="ecommerce_buyer-D" cx="20.822" cy="20.811" rx="20.822" ry="20.811"/>
    <filter id="ecommerce_buyer-C" width="239.3%" height="239.3%" x="-69.6%" y="-52.9%" filterUnits="objectBoundingBox">
      <feOffset dy="7" in="SourceAlpha" result="shadowOffsetOuter1"/>
      <feGaussianBlur in="shadowOffsetOuter1" result="shadowBlurOuter1" stdDeviation="8.5"/>
      <feColorMatrix in="shadowBlurOuter1" values="0 0 0 0 0.874509804   0 0 0 0 0.905882353   0 0 0 0 0.929411765  0 0 0 0.6 0"/>
    </filter>
  </defs>
  <g fill="none" fill-rule="evenodd" transform="translate(76 10)">
    <rect width="354" height="245" x="25" y="115" fill="#25394D" fill-opacity=".1" fill-rule="nonzero" filter="url(#ecommerce_buyer-a)" opacity=".5"/>
    <g transform="translate(0 55)">
      <rect width="435.907" height="240.538" x="8.043" y="29.666" fill="url(#ecommerce_buyer-b)" fill-rule="nonzero"/>
      <g transform="translate(31.366 50.513)">
        <g fill-rule="nonzero">
          <use fill="#000" filter="url(#ecommerce_buyer-c)" xlink:href="#ecommerce_buyer-d"/>
          <use fill="url(#ecommerce_buyer-e)" xlink:href="#ecommerce_buyer-d"/>
        </g>
        <g transform="translate(16.085 14.432)">
          <mask id="ecommerce_buyer-g" fill="#fff">
            <use xlink:href="#ecommerce_buyer-f"/>
          </mask>
          <use fill="#F0F4F7" fill-rule="nonzero" xlink:href="#ecommerce_buyer-f"/>
          <ellipse cx="15.683" cy="14.031" fill="#E3E8EF" fill-rule="nonzero" mask="url(#ecommerce_buyer-g)" rx="6.836" ry="6.815"/>
          <path fill="#E3E8EF" fill-rule="nonzero" d="M-2.41276679,76.1702319 C-2.41276679,76.1702319 9.32178893,63.6088253 32.7909004,38.4860119 L65.948959,76.1702319 C20.3744751,76.1702319 -2.41276679,76.1702319 -2.41276679,76.1702319 Z" mask="url(#ecommerce_buyer-g)" opacity=".503"/>
          <path fill="#E3E8EF" fill-rule="nonzero" d="M16.085112,82.5845672 C16.085112,82.5845672 34.4462403,63.3415613 71.1684971,24.8555494 L123.051106,82.5845672 C51.7404435,82.5845672 16.085112,82.5845672 16.085112,82.5845672 Z" mask="url(#ecommerce_buyer-g)"/>
          <g transform="translate(0 89.8)">
            <mask id="ecommerce_buyer-i" fill="#fff">
              <use xlink:href="#ecommerce_buyer-h"/>
            </mask>
            <use fill="#F0F4F7" fill-rule="nonzero" xlink:href="#ecommerce_buyer-h"/>
            <ellipse cx="15.683" cy="14.031" fill="#E3E8EF" fill-rule="nonzero" mask="url(#ecommerce_buyer-i)" rx="6.836" ry="6.815"/>
            <path fill="#E3E8EF" fill-rule="nonzero" d="M-2.41276679,76.1702319 C-2.41276679,76.1702319 9.32178893,63.6088253 32.7909004,38.4860119 L65.948959,76.1702319 C20.3744751,76.1702319 -2.41276679,76.1702319 -2.41276679,76.1702319 Z" mask="url(#ecommerce_buyer-i)" opacity=".503"/>
            <path fill="#E3E8EF" fill-rule="nonzero" d="M16.085112,82.5845672 C16.085112,82.5845672 34.4462403,63.3415613 71.1684971,24.8555494 L123.051106,82.5845672 C51.7404435,82.5845672 16.085112,82.5845672 16.085112,82.5845672 Z" mask="url(#ecommerce_buyer-i)"/>
          </g>
          <g transform="translate(90.077)">
            <mask id="ecommerce_buyer-k" fill="#fff">
              <use xlink:href="#ecommerce_buyer-j"/>
            </mask>
            <use fill="#F0F4F7" fill-rule="nonzero" xlink:href="#ecommerce_buyer-j"/>
            <ellipse cx="15.683" cy="14.031" fill="#E3E8EF" fill-rule="nonzero" mask="url(#ecommerce_buyer-k)" rx="6.836" ry="6.815"/>
            <path fill="#E3E8EF" fill-rule="nonzero" d="M-2.41276679,76.1702319 C-2.41276679,76.1702319 9.32178893,63.6088253 32.7909004,38.4860119 L65.948959,76.1702319 C20.3744751,76.1702319 -2.41276679,76.1702319 -2.41276679,76.1702319 Z" mask="url(#ecommerce_buyer-k)" opacity=".503"/>
            <path fill="#E3E8EF" fill-rule="nonzero" d="M16.085112,82.5845672 C16.085112,82.5845672 34.4462403,63.3415613 71.1684971,24.8555494 L123.051106,82.5845672 C51.7404435,82.5845672 16.085112,82.5845672 16.085112,82.5845672 Z" mask="url(#ecommerce_buyer-k)"/>
          </g>
          <g transform="translate(90.077 89.8)">
            <mask id="ecommerce_buyer-m" fill="#fff">
              <use xlink:href="#ecommerce_buyer-l"/>
            </mask>
            <use fill="#F0F4F7" fill-rule="nonzero" xlink:href="#ecommerce_buyer-l"/>
            <ellipse cx="15.683" cy="14.031" fill="#E3E8EF" fill-rule="nonzero" mask="url(#ecommerce_buyer-m)" rx="6.836" ry="6.815"/>
            <path fill="#E3E8EF" fill-rule="nonzero" d="M-2.41276679,76.1702319 C-2.41276679,76.1702319 9.32178893,63.6088253 32.7909004,38.4860119 L65.948959,76.1702319 C20.3744751,76.1702319 -2.41276679,76.1702319 -2.41276679,76.1702319 Z" mask="url(#ecommerce_buyer-m)" opacity=".503"/>
            <path fill="#E3E8EF" fill-rule="nonzero" d="M16.085112,82.5845672 C16.085112,82.5845672 34.4462403,63.3415613 71.1684971,24.8555494 L123.051106,82.5845672 C51.7404435,82.5845672 16.085112,82.5845672 16.085112,82.5845672 Z" mask="url(#ecommerce_buyer-m)"/>
          </g>
        </g>
      </g>
      <g fill-rule="nonzero">
        <use fill="#000" filter="url(#ecommerce_buyer-n)" xlink:href="#ecommerce_buyer-o"/>
        <use fill="url(#ecommerce_buyer-e)" xlink:href="#ecommerce_buyer-o"/>
      </g>
      <g transform="translate(262.992 196.439)">
        <rect width="134.311" height="30.468" fill="#1972F4" fill-rule="nonzero" rx="2.875"/>
        <path fill="#72A6FF" d="M38.0754706,11.4576065 L42.1047912,11.4576065 C42.6838552,11.4576065 43.1664086,11.5157363 43.5524513,11.6319962 C43.938494,11.7482561 44.2461217,11.9066099 44.4753346,12.1070579 C44.7045474,12.307506 44.8674092,12.5420301 44.9639198,12.8106303 C45.0604305,13.0792306 45.1086858,13.3618622 45.1086858,13.6585253 C45.1086858,14.0514034 45.024239,14.4021872 44.8553453,14.7108772 C44.6864517,15.0195671 44.4130047,15.278145 44.0350046,15.4866108 C44.9116433,15.8794889 45.3499625,16.557003 45.3499625,17.5191533 C45.3499625,17.8559059 45.2936646,18.1766228 45.1810689,18.4813036 C45.0684731,18.7859845 44.879473,19.0545849 44.6140687,19.2871045 C44.3486643,19.5196241 44.0028343,19.7040364 43.5765789,19.8403409 C43.1503235,19.9766455 42.6235361,20.0447979 41.9962167,20.0447979 L38.0754706,20.0447979 L38.0754706,11.4576065 Z M40.5726843,14.7168906 L41.6463655,14.7168906 C41.9841529,14.7168906 42.2133657,14.6607651 42.334004,14.5485143 C42.4546424,14.4362635 42.5149615,14.275905 42.5149615,14.0674391 C42.5149615,13.8589733 42.4546424,13.6986148 42.334004,13.586364 C42.2133657,13.4741132 41.9841529,13.4179877 41.6463655,13.4179877 L40.5726843,13.4179877 L40.5726843,14.7168906 Z M40.5726843,18.0844166 L41.7066847,18.0844166 C42.116855,18.0844166 42.3943232,18.0162643 42.5390892,17.8799597 C42.6838552,17.7436551 42.7562382,17.5512251 42.7562382,17.3026695 C42.7562382,17.0460962 42.6838552,16.849657 42.5390892,16.7133525 C42.3943232,16.5770479 42.116855,16.5088955 41.7066847,16.5088955 L40.5726843,16.5088955 L40.5726843,18.0844166 Z M50.1272408,20.2612817 C49.5401341,20.2612817 49.0133468,20.1891204 48.5468785,20.0447979 C48.0804102,19.9004753 47.6863251,19.6739692 47.3646228,19.3652792 C47.0429205,19.0565893 46.7976226,18.6617068 46.6287289,18.1806317 C46.4598353,17.6995565 46.3753884,17.1222663 46.3753884,16.4487611 L46.3753884,11.4576065 L49.1138787,11.4576065 L49.1138787,16.5690299 C49.1138787,17.0260513 49.1943043,17.3648085 49.3551554,17.5853012 C49.5160065,17.8057939 49.7854322,17.9160403 50.1634323,17.9160403 C50.5414324,17.9160403 50.8108581,17.8057939 50.9717092,17.5853012 C51.1325602,17.3648085 51.2129858,17.0260513 51.2129858,16.5690299 L51.2129858,11.4576065 L53.9514761,11.4576065 L53.9514761,16.4487611 C53.9514761,17.7316283 53.6217314,18.6877651 52.9622418,19.3171717 C52.3027521,19.9465783 51.3577518,20.2612817 50.1272408,20.2612817 Z M57.6430093,11.4576065 L58.9579672,14.5845949 L60.284989,11.4576065 L63.1320538,11.4576065 L60.3091167,16.857675 L60.3091167,20.0447979 L57.5585625,20.0447979 L57.5585625,16.857675 L54.7356254,11.4576065 L57.6430093,11.4576065 Z M66.5099273,11.4576065 L68.8623749,11.4576065 L71.6129291,15.7993097 L71.6129291,11.4576065 L74.1704619,11.4576065 L74.1704619,20.0447979 L71.8421419,20.0447979 L69.0674601,15.6790409 L69.0674601,20.0447979 L66.5099273,20.0447979 L66.5099273,11.4576065 Z M79.683634,20.2612817 C78.9839316,20.2612817 78.3666654,20.1590532 77.8318355,19.9545963 C77.2970056,19.7501393 76.8466223,19.4554808 76.4806861,19.0706207 C76.1147499,18.6857606 75.8392922,18.2167123 75.6543135,17.6634759 C75.4693347,17.1102395 75.3768453,16.4848418 75.3768453,15.7872828 C75.3768453,15.0897238 75.4693347,14.4623216 75.6543135,13.9050763 C75.8392922,13.347831 76.1167604,12.8707647 76.486718,12.4738777 C76.8566756,12.0769907 77.3151013,11.7723099 77.8619951,11.5598349 C78.4088888,11.34736 79.0402296,11.2411226 79.756017,11.2411226 C80.4557194,11.2411226 81.0729856,11.3433511 81.6078155,11.5478081 C82.1426454,11.752265 82.5930287,12.0469235 82.9589649,12.4317836 C83.3249012,12.8166438 83.6003588,13.2836875 83.7853376,13.832915 C83.9703163,14.3821425 84.0628057,15.0055357 84.0628057,15.7030947 C84.0628057,16.4006536 83.9683058,17.0320648 83.7793056,17.5973281 C83.5903055,18.1625914 83.3128373,18.641662 82.9469011,19.0345401 C82.5809649,19.4274182 82.1245497,19.7300945 81.5776559,19.9425694 C81.0307622,20.1550443 80.3994214,20.2612817 79.683634,20.2612817 Z M79.7198255,17.9160403 C80.7251449,17.9160403 81.2278048,17.1944276 81.2278048,15.7512022 C81.2278048,14.3079767 80.7251449,13.586364 79.7198255,13.586364 C78.7145061,13.586364 78.2118463,14.3079767 78.2118463,15.7512022 C78.2118463,17.1944276 78.7145061,17.9160403 79.7198255,17.9160403 Z M93.0141705,16.7734869 L93.9068943,11.4576065 L96.7177676,11.4576065 L94.5583413,20.0447979 L91.6992126,20.0447979 L90.7461698,15.2340464 L89.8051907,20.0447979 L86.9460621,20.0447979 L84.7866358,11.4576065 L87.6578283,11.4576065 L88.5384881,16.7734869 L89.5759779,11.5177409 L91.9887447,11.5177409 L93.0141705,16.7734869 Z"/>
      </g>
      <path fill="#E6EBF1" fill-rule="nonzero" d="M268.62137 88.9989026C263.735411 88.9989026 259.774558 85.0501834 259.774558 80.1791915 259.774558 75.3081996 263.735411 71.3594804 268.62137 71.3594804 273.507329 71.3594804 277.468181 75.3081996 277.468181 80.1791915 277.468181 85.0501834 273.507329 88.9989026 268.62137 88.9989026zM290.336271 76.9720238L394.085243 76.9720238 394.085243 84.1881511 290.336271 84.1881511 290.336271 76.9720238zM268.62137 117.06162C263.735411 117.06162 259.774558 113.1129 259.774558 108.241909 259.774558 103.370917 263.735411 99.4221975 268.62137 99.4221975 273.507329 99.4221975 277.468181 103.370917 277.468181 108.241909 277.468181 113.1129 273.507329 117.06162 268.62137 117.06162zM290.336271 105.034741L394.085243 105.034741 394.085243 112.250868 290.336271 112.250868 290.336271 105.034741zM268.62137 145.124337C263.735411 145.124337 259.774558 141.175617 259.774558 136.304626 259.774558 131.433634 263.735411 127.484914 268.62137 127.484914 273.507329 127.484914 277.468181 131.433634 277.468181 136.304626 277.468181 141.175617 273.507329 145.124337 268.62137 145.124337zM290.336271 133.097458L394.085243 133.097458 394.085243 140.313585 290.336271 140.313585 290.336271 133.097458z"/>
      <g transform="translate(259.775 156.35)">
        <ellipse cx="12.868" cy="12.829" fill="#00C896" fill-rule="nonzero" opacity=".3" rx="12.868" ry="12.829"/>
        <polyline stroke="#0CB78C" stroke-width="1.997" points="7.238 13.144 10.421 16.303 17.962 8.82"/>
      </g>
      <polygon fill="#E6EBF1" points="294.358 158.755 390.064 158.755 390.064 165.971 294.358 165.971"/>
      <polygon fill="#E6EBF1" points="294.358 172.385 371.566 172.385 371.566 179.601 294.358 179.601"/>
      <g transform="translate(8.043 8.018)">
        <g fill-rule="nonzero">
          <use fill="#000" filter="url(#ecommerce_buyer-p)" xlink:href="#ecommerce_buyer-q"/>
          <use fill="#F4F8FB" xlink:href="#ecommerce_buyer-q"/>
        </g>
        <path fill="#CAD3DA" fill-rule="nonzero" d="M14.074473,15.2340464 C12.0756715,15.2340464 10.4553228,13.6186613 10.4553228,11.6259828 C10.4553228,9.63330426 12.0756715,8.01791915 14.074473,8.01791915 C16.0732744,8.01791915 17.6936232,9.63330426 17.6936232,11.6259828 C17.6936232,13.6186613 16.0732744,15.2340464 14.074473,15.2340464 Z M26.9425625,15.2340464 C24.9437611,15.2340464 23.3234123,13.6186613 23.3234123,11.6259828 C23.3234123,9.63330426 24.9437611,8.01791915 26.9425625,8.01791915 C28.941364,8.01791915 30.5617127,9.63330426 30.5617127,11.6259828 C30.5617127,13.6186613 28.941364,15.2340464 26.9425625,15.2340464 Z M39.0063965,15.2340464 C37.007595,15.2340464 35.3872463,13.6186613 35.3872463,11.6259828 C35.3872463,9.63330426 37.007595,8.01791915 39.0063965,8.01791915 C41.005198,8.01791915 42.6255467,9.63330426 42.6255467,11.6259828 C42.6255467,13.6186613 41.005198,15.2340464 39.0063965,15.2340464 Z"/>
      </g>
    </g>
    <path fill="url(#ecommerce_buyer-r)" fill-rule="nonzero" d="M271.126461,484 C296.852375,483.166837 294.807236,482.00017 264.991046,480.5 C235.174855,478.99983 190.844507,477.833163 132,477 L146.85711,484 L271.126461,484 Z" opacity=".597"/>
    <g transform="translate(106 154)">
      <g transform="rotate(67 -33.125 82.113)">
        <path fill="#FFCCBA" d="M0.310931129,9.30287388 L12.0901419,0.447986393 C12.5823809,3.26446816 13.6001464,6.26604879 15.1434386,9.45272829 C16.6867308,12.6394078 18.706876,15.6322751 21.2038743,18.4313303 L55.183967,10.5340401 L58.888857,11.3995736 L71.1945734,10.9806883 C71.8954054,11.1507517 71.9922054,12.113156 71.3339654,12.4146321 L63.3773065,17.5476926 C62.8094132,17.6868354 59.64355,17.710595 53.8797171,17.6189713 C37.9726432,24.5721743 27.0392767,28.1292546 21.0796177,28.2902122 C12.1401291,28.5316485 7.74960939,21.3841121 6.31399218,18.9036192 L0.310931129,9.30287388 Z" transform="translate(16.75 27.137)"/>
        <path fill="#0E4DE3" fill-rule="nonzero" d="M0.0488097525,0.150669696 C-0.766572102,3.96560485 21.4977917,9.48464399 26.1867839,16.5461408 L31.9123968,31.6641448 L14.9163167,39.3407609 C11.7433099,35.1488619 8.3972716,29.2071525 4.87820196,21.5156326 C1.35913232,13.8241127 -0.250665084,6.70245839 0.0488097525,0.150669696 Z"/>
      </g>
      <g fill="#FFCCBA" transform="translate(58.08 49.28)">
        <path d="M8.95206439,42.067505 C4.80902421,42.067505 1.45200006,38.7164827 1.45200006,34.5808497 L1.45200006,21.9806965 C1.45200006,17.8450635 4.80902421,14.4940412 8.95206439,14.4940412 C13.0951046,14.4940412 16.4521287,17.8450635 16.4521287,21.9806965 L16.4521287,34.5808497 C16.4521287,38.7164827 13.0951046,42.067505 8.95206439,42.067505"/>
        <path d="M20.5529853,0.411419397 L23.5642784,0.411419397 L25.0285675,11.1120982 C24.3406522,20.0326974 23.2648865,24.5419547 21.8012705,24.63987 L11.8078989,29.51368 L2.3170049,23.3129888 L0.0441408019,4.40116391 L20.5529853,0.411419397 Z"/>
      </g>
      <g transform="rotate(-38 166.993 -43.84)">
        <path fill="#FFCCBA" d="M8.3175453,79.6172016 L37.5123483,75.2453839 C40.2078649,74.9680407 42.8393289,74.2361658 45.2923262,73.085626 L57.6432828,65.4604468 C59.5348809,64.5715585 61.3015204,63.4393573 62.9038609,62.0925031 L78.9832088,50.8410832 C78.9832088,50.8410832 83.1289569,52.2808772 84.4342065,51.5391184 C84.9158593,51.2658568 84.4123525,48.2196327 86.4897339,46.1181324 C88.607541,43.9757372 91.7986456,41.1445464 92.6111697,39.2902113 C92.8032349,38.8518818 92.8872315,37.1767989 92.2830899,37.1986639 C83.0690684,41.802987 78.2665767,44.203109 77.8756147,44.39903 L43.0767775,61.5868703 C39.4115055,63.4289986 35.342914,64.3013923 31.249974,64.1250624 L6.8739036,65.7125209 L8.3175453,79.6172016 Z" transform="rotate(67 49.813 58.408)"/>
        <path fill="#0E4DE3" fill-rule="nonzero" d="M11.5381211,5.36974129 C17.4651764,4.90453895 25.3138601,10.8580405 35.0841722,23.2302458 L26.1579902,36.700734 L8.76963615,31.8590044 C4.68823746,14.664698 5.61106578,5.83494363 11.5381211,5.36974129 Z" transform="rotate(30 20.679 21.023)"/>
      </g>
      <path fill="#001955" fill-rule="nonzero" d="M91.6855123,169.580281 C94.2433532,186.261642 95.9179485,198.789614 96.7092981,207.164199 C97.5006478,215.538783 98.0148832,226.174461 98.2520043,239.071233 L90.2335123,314.037558 L80.0960087,314.037558 C78.9481967,296.040286 78.344267,282.54763 78.2842196,273.55959 C78.2241723,264.57155 78.6660412,253.80653 79.6098263,241.264532 C73.2995121,228.967351 68.9317837,219.659345 66.5066409,213.340514 C64.0814981,207.021683 62.5881332,201.058317 62.026546,195.450416 L45.012002,177.304919 L91.6855123,169.580281 Z"/>
      <path fill="#001955" fill-rule="nonzero" d="M41.494612,169.580281 C38.867262,176.515176 38.105841,184.631374 39.2103492,193.928876 C40.3148574,203.226377 43.7510526,217.625829 49.518935,237.12723 C47.6128364,248.969661 46.2329395,259.842662 45.3792443,269.746233 C44.5255491,279.649804 44.3408701,294.413579 44.8252073,314.037558 L54.1777983,314.037558 L68.5904432,239.179246 L66.9137643,191.496405 L90.0240039,170.037357 L41.494612,169.580281 Z"/>
      <g transform="translate(34.848 79.234)">
        <mask id="ecommerce_buyer-u" fill="#fff">
          <use xlink:href="#ecommerce_buyer-s"/>
        </mask>
        <use fill="#0E4DE3" fill-rule="nonzero" xlink:href="#ecommerce_buyer-s"/>
        <path fill="url(#ecommerce_buyer-t)" fill-rule="nonzero" d="M52.7560023,30.7831406 C54.7405671,38.2219688 56.6974669,44.3289815 58.6267018,49.1041788 C60.5559367,53.8793761 62.0305279,61.6680518 63.0504752,72.4702058 L60.1326325,32.0688656 L52.7560023,30.7831406 Z" mask="url(#ecommerce_buyer-u)" opacity=".243"/>
      </g>
      <path fill="#001751" d="M74.3362781,55.9038975 C73.2305341,57.1261597 73.7757351,59.3679068 71.657226,65.1245172 C69.5387169,70.8811275 66.3541787,69.5096632 65.2001483,75.2410084 C64.0461178,80.9723536 89.4628708,128.116722 71.657226,139.800654 C53.8515813,151.484586 21.5836532,153.622352 41.6855216,102.533742 C44.3633032,95.7281988 56.8272735,81.1412982 56.8272735,75.5508792 C56.8272735,71.891966 53.2407259,71.4085768 51.0116414,66.0912956 C48.7825568,60.7740143 44.0655992,30.5686656 76.3621534,37.2288344 C87.1046435,39.4441419 84.3164694,45.873737 82.3523586,50.2775826 C77.7454676,53.2136178 75.0734408,55.0890561 74.3362781,55.9038975 Z"/>
      <path fill="#FFCCBA" d="M74.5204697,61.7092715 C74.6627549,63.4318046 73.8117283,64.9956324 72.6170696,65.200788 C71.4224108,65.4059436 70.3405064,64.1788807 70.1955366,62.4563477 C70.0532514,60.7338146 70.9042779,59.1699869 72.0989367,58.9648312 C72.6989611,58.8617906 73.2712193,59.1200429 73.7102674,59.6209024 C74.1453715,60.1172626 74.4496481,60.8518909 74.5204697,61.7092715"/>
      <path stroke="#001955" stroke-width="1.815" d="M98.8016607,110.343088 C93.4986654,110.434212 89.7540888,110.712116 87.5679309,111.176798" opacity=".496" transform="rotate(12 93.185 110.76)"/>
      <use fill="#0E4DE3" fill-rule="nonzero" transform="translate(77.44 302.442)" xlink:href="#ecommerce_buyer-v"/>
      <use fill="#0E4DE3" fill-rule="nonzero" transform="rotate(4 -4270.886 754.568)" xlink:href="#ecommerce_buyer-w"/>
      <path stroke="#0E4DE3" stroke-width="1.815" d="M67.7600029,215.961213 C63.6868563,210.880023 61.1055229,207.17599 60.0160026,204.849115"/>
      <path fill="#FF910B" fill-rule="nonzero" d="M56.6686542,73.8958735 L64.9016559,73.8945955 C65.7019018,73.8944713 66.3507301,74.5430981 66.3508543,75.3433441 C66.3508543,75.3434942 66.3508543,75.3436443 66.3508543,75.3437944 L66.3508543,75.3437944 C66.3507298,76.1443619 65.7017726,76.7933189 64.9012051,76.7934432 L56.6682034,76.7947212 C55.8679575,76.7948454 55.2191292,76.1462186 55.219005,75.3459726 C55.219005,75.3458225 55.219005,75.3456724 55.219005,75.3455224 L55.219005,75.3455224 C55.2191295,74.5449548 55.8680867,73.8959978 56.6686542,73.8958735 Z" transform="rotate(5 60.785 75.345)"/>
    </g>
    <g fill-rule="nonzero" transform="translate(25 359)">
      <path fill="#FF9D59" d="M11.5233346,32.0963427 C17.1122943,32.053377 21.9787016,29.997827 22.0013412,27.0608703 C22.0239807,24.1239136 15.6523757,21.2212613 10.0634159,21.264227 C4.47445618,21.3071927 1.09740949,24.4566571 1.07476996,27.3936138 C1.05213043,30.3305705 5.93437483,32.1393083 11.5233346,32.0963427 Z" transform="rotate(40 11.538 26.68)"/>
      <path fill="#FDBA5F" d="M19.7705162,27.3661398 C28.155204,27.3080571 35.4542993,24.0965422 35.4859317,19.4965259 C35.5175641,14.8965095 25.9563898,10.3396826 17.571702,10.3977654 C9.18701417,10.4558481 4.12317018,15.3831784 4.09153779,19.9831947 C4.0599054,24.5832111 11.3858284,27.4242226 19.7705162,27.3661398 Z" transform="rotate(59 19.789 18.882)"/>
      <path stroke="#001955" stroke-width="1.404" d="M20.9749768,18.4493284 C28.0015428,40.8777919 31.1763011,61.1057121 30.4992519,79.1330891"/>
      <path fill="#FDBA5F" d="M49.8108227,33.9540365 C55.3982784,33.9972404 60.2292666,31.6401637 60.2022641,28.1555938 C60.1752617,24.6710239 53.7554845,21.1194019 48.1680288,21.076198 C42.5805732,21.0329941 39.257227,24.7131933 39.2842295,28.1977632 C39.3112319,31.6823331 44.2233671,33.9108326 49.8108227,33.9540365 Z" transform="rotate(-41 49.743 27.515)"/>
      <polyline fill="url(#ecommerce_buyer-x)" points="29.949 78.889 92 78.222 29.949 74.554 29.949 78.222" opacity=".742"/>
      <path stroke="#001955" stroke-width="1.404" d="M48.9416126 26.2515263C39.3116271 42.0935165 33.4852447 59.7207042 31.4624652 79.1330891M13.1093605 26.2515263C23.9053152 46.272174 29.7316976 63.8993616 30.5885079 79.1330891"/>
    </g>
    <g transform="translate(330 332)">
      <polyline fill="url(#ecommerce_buyer-x)" fill-rule="nonzero" points="26 113 101 112.262 28.671 109" opacity=".742"/>
      <g transform="translate(19)">
        <path fill="#1972F4" fill-rule="nonzero" d="M13.2911839,93.0725609 C32.1951454,89.9813484 41.6471262,86.4660096 41.6471262,82.5265443 C41.6471262,76.6173465 28.5573613,78.971171 29.6458241,76.2760265 C30.7342868,73.5808821 46.3918389,67.9503861 44.7991542,61.6854969 C43.2064696,55.4206077 35.969885,59.3096021 33.7750065,56.6760492 C31.580128,54.0424964 51.6818089,44.6893032 51.6818089,38.0943859 C51.6818089,31.4994686 43.4567852,36.3882994 40.8259061,35.3191724 C38.195027,34.2500454 50.9334267,16.696448 51.6818089,11.3544059 C52.4301912,6.01236374 51.8218421,0 46.7344841,0 C41.6471262,0 38.5192063,7.40484648 36.8716369,12.9506541 C35.2240674,18.4964617 34.1674439,28.6446993 32.4911313,28.6446993 C30.8148187,28.6446993 27.5468657,22.2797238 25.4217474,22.2797238 C23.296629,22.2797238 21.2879484,27.8614598 23.0606757,42.2687545 C24.833403,56.6760492 19.5757483,48.3124273 17.0223234,48.3124273 C14.4688986,48.3124273 11.1999197,48.2872774 10.2099418,51.802103 C9.2199639,55.3169286 11.524099,69.4106195 11.524099,70.0414199 C11.524099,70.6722202 9.10711668,70.8061819 5.58833512,67.9426871 C2.06955355,65.0791924 -3.47586154,70.585992 2.96309837,79.1728834 C7.25573831,84.8974776 10.6984335,89.5307034 13.2911839,93.0725609 Z"/>
        <path stroke="#001955" stroke-width="1.5" d="M47.5912642,5.78139535 C30.1816735,40.5163033 17.1192656,76.2442042 8.4040404,112.965098"/>
        <polyline stroke="#001955" stroke-width="1.5" points="34.873 81.769 17.487 81.769 7.879 74.107"/>
        <polyline stroke="#001955" stroke-width="1.5" points="39.181 64.201 22.147 65.984 14.707 54.66"/>
        <polyline stroke="#001955" stroke-width="1.5" points="44.77 41.37 31.263 42.909 25.212 29.958"/>
      </g>
      <g transform="matrix(-1 0 0 1 28 76)">
        <path fill="#FDBA5F" fill-rule="nonzero" d="M12.3841442,2.44412667 C3.78977273,9.17463728 1.35582386,20.6101563 6.61423562,24.2513114 C11.8726474,27.8924665 20.0438343,21.9052595 22.2577681,13.6357492 C24.4717019,5.36623884 20.9785156,-4.28638393 12.3841442,2.44412667 Z"/>
        <path stroke="#001955" stroke-width="1.5" d="M19.3587757,3.73303571 C7.77471739,21.8259394 1.39257812,32.8522972 0.212357955,36.8121094"/>
        <polyline stroke="#001955" stroke-width="1.5" points="8.765 12.199 8.765 20.616 16.478 18.36"/>
      </g>
    </g>
    <g transform="translate(365)">
      <g transform="translate(29.932 123.566)">
        <g fill-rule="nonzero">
          <use fill="#000" filter="url(#ecommerce_buyer-y)" xlink:href="#ecommerce_buyer-z"/>
          <use fill="#FFF" xlink:href="#ecommerce_buyer-z"/>
        </g>
        <path fill="#FF6C6C" d="M44.4233947,20.6051599 C42.8061145,19.0082468 40.6614603,18.2097902 38.5168061,18.2097902 C36.3721519,18.2097902 34.2274977,19.0082468 32.6102174,20.6051599 L31.2390451,21.9590644 L29.8327144,20.6051599 C28.2154342,19.0082468 26.07078,18.2097902 23.9261258,18.2097902 C21.711155,18.2097902 19.5313426,19.0776778 17.8789041,20.7787374 C14.7146601,24.0419946 14.9256097,29.2493199 18.1601702,32.4431461 L30.2546136,44.3852788 C30.8171459,44.9407268 31.6961025,44.9407268 32.2234765,44.3852788 L44.4233947,32.3389996 C47.6579552,29.0757424 47.6579552,23.8337015 44.4233947,20.6051599 Z"/>
      </g>
      <g fill-rule="nonzero">
        <use fill="#000" filter="url(#ecommerce_buyer-A)" xlink:href="#ecommerce_buyer-B"/>
        <use fill="#FFF" xlink:href="#ecommerce_buyer-B"/>
      </g>
      <path fill="#3B81FE" fill-rule="nonzero" d="M71.9715836,71.1999884 L71.6786608,63.9784434 C71.6785158,63.974868 71.6755779,63.9720418 71.6719978,63.9720336 L70.5653753,63.9720336 C70.5617871,63.9720306 70.5588368,63.97486 70.5586915,63.9784434 L70.2267068,72.163255 L70.2163584,72.1843992 C70.2147863,72.187606 70.2145618,72.1913079 70.215735,72.194681 C70.2169082,72.1980541 70.2193816,72.2008186 70.2226049,72.2023593 L70.2250619,72.2035039 L70.2236668,72.2378423 C70.2235192,72.2414823 70.224865,72.2450246 70.2273927,72.2476491 C70.2299203,72.2502737 70.2334106,72.2517529 70.2370553,72.2517442 L70.3262356,72.2517442 L75.7662948,74.8456508 C75.7694514,74.8471595 75.773238,74.8459797 75.7749775,74.8429453 L76.2165479,74.0785296 C76.2183102,74.0754918 76.2174186,74.0716089 76.2145074,74.0696432 L71.9715836,71.1999884 Z M81.9863014,70.3662297 C81.9863014,75.9847304 77.3252734,80.6433566 71.4468088,80.6433566 C65.8254115,80.6433566 61.1643836,75.9847304 61.1643836,70.3662297 C61.1643836,64.4907941 65.8254115,59.8321678 71.4468088,59.8321678 C77.3252734,59.8321678 81.9863014,64.4907941 81.9863014,70.3662297 Z"/>
      <g fill-rule="nonzero">
        <use fill="#000" filter="url(#ecommerce_buyer-C)" xlink:href="#ecommerce_buyer-D"/>
        <use fill="#FFF" xlink:href="#ecommerce_buyer-D"/>
      </g>
      <path fill="#FF9D59" fill-rule="nonzero" d="M11.1052691,11.706294 C10.7218016,11.706294 10.4109589,12.0120248 10.4109589,12.3891607 C10.4109589,12.7662966 10.7218016,13.0720274 11.1052691,13.0720274 L13.3183828,13.0720274 L15.705074,24.1472716 C15.7995002,24.5641845 16.0773168,24.9111718 16.4283138,24.9083948 L28.0001499,24.9083948 C28.366954,24.9134025 28.7043413,24.5863321 28.7043413,24.2255281 C28.7043413,23.8647241 28.366954,23.5375627 28.0001499,23.5426614 L16.9924408,23.5426614 L16.6959009,22.1769053 L28.9258957,22.1769053 C29.2367615,22.1746291 29.5304778,21.9417715 29.5984971,21.6434271 L31.2185542,14.8147601 C31.3088376,14.4184539 30.9588821,13.9854276 30.5459527,13.9825163 L14.9384399,13.9825163 L14.5623552,12.2468968 C14.4966503,11.9436813 14.1977266,11.7059754 13.8825098,11.706294 L11.1052691,11.706294 Z M18.742681,25.3636393 C17.4727183,25.3636393 16.4283138,26.3908074 16.4283138,27.6398616 C16.4283138,28.8888931 17.4727183,29.9160839 18.742681,29.9160839 C20.0126437,29.9160839 21.0570482,28.8888931 21.0570482,27.6398616 C21.0570482,26.3908301 20.0126437,25.3636393 18.742681,25.3636393 Z M25.6857827,25.3636393 C24.41582,25.3636393 23.3714155,26.3908074 23.3714155,27.6398616 C23.3714155,28.8888931 24.41582,29.9160839 25.6857827,29.9160839 C26.9557454,29.9160839 28.0001499,28.8888931 28.0001499,27.6398616 C28.0001499,26.3908301 26.9557454,25.3636393 25.6857827,25.3636393 Z"/>
    </g>
  </g>
</svg>
