<svg xmlns="http://www.w3.org/2000/svg" xmlns:xlink="http://www.w3.org/1999/xlink" width="443" height="501" viewBox="0 0 443 501">
  <defs>
    <linearGradient id="illustration-marketing-a" x1="50%" x2="50%" y1="96.796%" y2="6.327%">
      <stop offset="0%" stop-color="#F2F6FA"/>
      <stop offset="100%" stop-color="#E1E9F0"/>
    </linearGradient>
    <linearGradient id="illustration-marketing-d" x1="98.352%" x2="2.926%" y1="50%" y2="50%">
      <stop offset="0%" stop-color="#FFF" stop-opacity=".7"/>
      <stop offset="100%" stop-color="#FFF" stop-opacity=".9"/>
    </linearGradient>
    <rect id="illustration-marketing-c" width="196" height="218" x="15" y="46"/>
    <filter id="illustration-marketing-b" width="102.6%" height="102.8%" x="-1.3%" y="-.7%" filterUnits="objectBoundingBox">
      <feOffset dy="2" in="SourceAlpha" result="shadowOffsetOuter1"/>
      <feGaussianBlur in="shadowOffsetOuter1" result="shadowBlurOuter1" stdDeviation=".5"/>
      <feComposite in="shadowBlurOuter1" in2="SourceAlpha" operator="out" result="shadowBlurOuter1"/>
      <feColorMatrix in="shadowBlurOuter1" values="0 0 0 0 0.88627451   0 0 0 0 0.905882353   0 0 0 0 0.921568627  0 0 0 0.3 0"/>
    </filter>
    <rect id="illustration-marketing-f" width="192" height="218" x="224" y="46"/>
    <filter id="illustration-marketing-e" width="102.6%" height="102.8%" x="-1.3%" y="-.7%" filterUnits="objectBoundingBox">
      <feOffset dy="2" in="SourceAlpha" result="shadowOffsetOuter1"/>
      <feGaussianBlur in="shadowOffsetOuter1" result="shadowBlurOuter1" stdDeviation=".5"/>
      <feComposite in="shadowBlurOuter1" in2="SourceAlpha" operator="out" result="shadowBlurOuter1"/>
      <feColorMatrix in="shadowBlurOuter1" values="0 0 0 0 0.88627451   0 0 0 0 0.905882353   0 0 0 0 0.921568627  0 0 0 0.3 0"/>
    </filter>
    <rect id="illustration-marketing-h" width="428" height="28"/>
    <filter id="illustration-marketing-g" width="101.2%" height="121.4%" x="-.6%" y="-5.4%" filterUnits="objectBoundingBox">
      <feOffset dy="2" in="SourceAlpha" result="shadowOffsetOuter1"/>
      <feGaussianBlur in="shadowOffsetOuter1" result="shadowBlurOuter1" stdDeviation=".5"/>
      <feColorMatrix in="shadowBlurOuter1" values="0 0 0 0 0.454901961   0 0 0 0 0.521568627   0 0 0 0 0.596078431  0 0 0 0.05 0"/>
    </filter>
    <linearGradient id="illustration-marketing-i" x1="50%" x2="50%" y1="110.717%" y2="42.438%">
      <stop offset="0%" stop-color="#FFF" stop-opacity="0"/>
      <stop offset="100%" stop-color="#0E4DE3"/>
    </linearGradient>
    <filter id="illustration-marketing-j" width="575.9%" height="173.8%" x="-237.9%" y="-36.9%" filterUnits="objectBoundingBox">
      <feGaussianBlur in="SourceGraphic" stdDeviation="23"/>
    </filter>
    <linearGradient id="illustration-marketing-k" x1="50%" x2="50%" y1="100%" y2="2.351%">
      <stop offset="2.251%" stop-color="#F7B65F"/>
      <stop offset="100%" stop-color="#F3B15B"/>
    </linearGradient>
    <linearGradient id="illustration-marketing-l" x1="0%" x2="97.677%" y1="50%" y2="50%">
      <stop offset="0%" stop-color="#C8D5E2"/>
      <stop offset="100%" stop-color="#C8D5E2" stop-opacity="0"/>
    </linearGradient>
    <polygon id="illustration-marketing-m" points="33.367 0 37.7 59.661 24.267 132.271 15.904 130.868 17.669 65.995 13 31.347 0 2.381"/>
    <linearGradient id="illustration-marketing-n" x1="50%" x2="50%" y1="64.181%" y2="0%">
      <stop offset="0%" stop-opacity="0"/>
      <stop offset="100%"/>
    </linearGradient>
    <path id="illustration-marketing-p" d="M5.665725,23.9969032 C2.535975,23.9969032 0,21.0805428 0,17.4813437 L0,6.51555951 C0,2.9163604 2.535975,0 5.665725,0 C8.795475,0 11.33145,2.9163604 11.33145,6.51555951 L11.33145,17.4813437 C11.33145,21.0805428 8.795475,23.9969032 5.665725,23.9969032"/>
    <linearGradient id="illustration-marketing-q" x1="50%" x2="91.979%" y1="100%" y2="-136.254%">
      <stop offset="0%" stop-opacity="0"/>
      <stop offset="100%"/>
    </linearGradient>
  </defs>
  <g fill="none" fill-rule="evenodd" transform="translate(1 -4)">
    <g transform="translate(0 160)">
      <rect width="428" height="281" y="3" fill="url(#illustration-marketing-a)" fill-rule="nonzero"/>
      <g fill-rule="nonzero">
        <use fill="#000" filter="url(#illustration-marketing-b)" xlink:href="#illustration-marketing-c"/>
        <use fill="url(#illustration-marketing-d)" xlink:href="#illustration-marketing-c"/>
      </g>
      <g fill-rule="nonzero">
        <use fill="#000" filter="url(#illustration-marketing-e)" xlink:href="#illustration-marketing-f"/>
        <use fill="url(#illustration-marketing-d)" xlink:href="#illustration-marketing-f"/>
      </g>
      <path fill="#E6EBF1" d="M241,66 L295,66 L295,75 L241,75 L241,66 Z M305,66 L333,66 L333,75 L305,75 L305,66 Z"/>
      <path fill="#E6EBF1" fill-rule="nonzero" d="M41,81 C34.9248678,81 30,76.0751322 30,70 C30,63.9248678 34.9248678,59 41,59 C47.0751322,59 52,63.9248678 52,70 C52,76.0751322 47.0751322,81 41,81 Z M65,66 L194,66 L194,75 L65,75 L65,66 Z"/>
      <g fill-rule="nonzero">
        <use fill="#000" filter="url(#illustration-marketing-g)" xlink:href="#illustration-marketing-h"/>
        <use fill="#F4F8FB" xlink:href="#illustration-marketing-h"/>
      </g>
      <path fill="#E6EDF5" fill-rule="nonzero" d="M20,20 C17.2385763,20 15,17.7614237 15,15 C15,12.2385763 17.2385763,10 20,10 C22.7614237,10 25,12.2385763 25,15 C25,17.7614237 22.7614237,20 20,20 Z M36,20 C33.2385763,20 31,17.7614237 31,15 C31,12.2385763 33.2385763,10 36,10 C38.7614237,10 41,12.2385763 41,15 C41,17.7614237 38.7614237,20 36,20 Z M51,20 C48.2385763,20 46,17.7614237 46,15 C46,12.2385763 48.2385763,10 51,10 C53.7614237,10 56,12.2385763 56,15 C56,17.7614237 53.7614237,20 51,20 Z"/>
      <g transform="translate(33 179)">
        <g fill-rule="nonzero" transform="translate(0 1)">
          <path fill="#E6EBF1" d="M0,0 L8,0 L8,69 L0,69 L0,0 Z M30,0 L38,0 L38,69 L30,69 L30,0 Z M59,0 L67,0 L67,69 L59,69 L59,0 Z M88,0 L96,0 L96,69 L88,69 L88,0 Z M117,0 L125,0 L125,69 L117,69 L117,0 Z M147,0 L155,0 L155,69 L147,69 L147,0 Z"/>
          <path fill="#1972F4" d="M0,44 L8,44 L8,69 L0,69 L0,44 Z M30,26 L38,26 L38,69 L30,69 L30,26 Z M59,14 L67,14 L67,69 L59,69 L59,14 Z M88,34 L96,34 L96,69 L88,69 L88,34 Z M117,23 L125,23 L125,69 L117,69 L117,23 Z M147,44 L155,44 L155,69 L147,69 L147,44 Z"/>
        </g>
        <path fill="#62748A" fill-opacity=".13" d="M110,40 L139,40 L139,48 L110,48 L110,40 Z M147,40 L161,40 L161,48 L147,48 L147,40 Z M110,20 L139,20 L139,28 L110,28 L110,20 Z M147,20 L161,20 L161,28 L147,28 L147,20 Z M110,61 L139,61 L139,69 L110,69 L110,61 Z M147,61 L161,61 L161,69 L147,69 L147,61 Z M5.68434189e-14,40 L100,40 L100,48 L5.68434189e-14,48 L5.68434189e-14,40 Z M5.68434189e-14,20 L100,20 L100,28 L5.68434189e-14,28 L5.68434189e-14,20 Z M110,1.27897692e-13 L139,1.27897692e-13 L139,8 L110,8 L110,1.27897692e-13 Z M147,1.27897692e-13 L161,1.27897692e-13 L161,8 L147,8 L147,1.27897692e-13 Z M5.68434189e-14,1.27897692e-13 L100,1.27897692e-13 L100,8 L5.68434189e-14,8 L5.68434189e-14,1.27897692e-13 Z M5.68434189e-14,61 L100,61 L100,69 L5.68434189e-14,69 L5.68434189e-14,61 Z" transform="translate(207)"/>
      </g>
      <g fill-rule="nonzero" transform="translate(23 81)">
        <g transform="rotate(48 64.127 144.598)">
          <path fill="#62748A" fill-opacity=".13" d="M33.1380586,65.5917568 C15.3490948,65.5917568 0.909487174,51.0198796 0.909487174,33.0203282 C0.909487174,15.0207769 15.3490948,0.448899644 33.1380586,0.448899644 C50.9270224,0.448899644 65.36663,15.0207769 65.36663,33.0203282 C65.36663,51.0198796 50.9270224,65.5917568 33.1380586,65.5917568 Z M33.5562868,58.9982709 C48.1522062,58.9982709 59.9658106,47.037699 59.9658106,32.3077947 C59.9658106,17.5778904 48.1522062,5.61731852 33.5562868,5.61731852 C18.9603674,5.61731852 7.146763,17.5778904 7.146763,32.3077947 C7.146763,47.037699 18.9603674,58.9982709 33.5562868,58.9982709 Z"/>
          <path fill="#1972F4" d="M33.1683059,66.4677383 L33.1683059,60.6098216 C39.8632859,60.6098216 46.1677734,58.1757352 51.0610491,53.8436941 C56.755952,48.8019686 60.0684115,41.6163155 60.0684115,33.8963097 C60.0684115,19.1541146 48.0357527,7.18279791 33.1683059,7.18279791 C25.2870136,7.18279791 17.9667126,10.5636085 12.8880893,16.3456211 L8.56168413,12.4538538 C14.7304173,5.43075127 23.6206535,1.32488118 33.1683059,1.32488118 C51.2108015,1.32488118 65.8569222,15.8963364 65.8569222,33.8963097 C65.8569222,43.3285834 61.8075035,52.1129076 54.8723551,58.2526286 C48.9317385,63.5118856 41.2758327,66.4677383 33.1683059,66.4677383 Z"/>
        </g>
        <g transform="rotate(45 23.518 57.403)">
          <path fill="#E6EBF1" d="M34.0507045,65.6935113 C15.749082,65.6935113 0.890327157,51.1089199 0.890327157,33.0897377 C0.890327157,15.0705555 15.749082,0.485964105 34.0507045,0.485964105 C52.352327,0.485964105 67.2110819,15.0705555 67.2110819,33.0897377 C67.2110819,51.1089199 52.352327,65.6935113 34.0507045,65.6935113 Z M35.1211344,59.7594082 C50.2301536,59.7594082 62.4560401,47.7852007 62.4560401,33.0424271 C62.4560401,18.2996535 50.2301536,6.32544594 35.1211344,6.32544594 C20.0121152,6.32544594 7.78622877,18.2996535 7.78622877,33.0424271 C7.78622877,47.7852007 20.0121152,59.7594082 35.1211344,59.7594082 Z"/>
          <path fill="#1972F4" d="M66.6465109,34.4748884 L60.8582322,34.4748884 C60.8582322,19.3138933 48.8103338,6.99921287 33.9203994,6.99921287 C26.026404,6.99921287 18.6948663,10.4779251 13.6092767,16.4264032 L9.28802037,12.4119866 C15.4639855,5.18812541 24.3634486,0.965454446 33.9203994,0.965454446 C51.9819517,0.965454446 66.6465109,15.9547376 66.6465109,34.4748884 Z"/>
        </g>
      </g>
      <g transform="matrix(-1 0 0 1 405 76)">
        <polygon fill="url(#illustration-marketing-i)" points="0 0 31.961 22.791 74.014 26.054 120.618 48.201 168 43.71 168 92 0 92" opacity=".153"/>
        <polyline stroke="#1972F4" stroke-linejoin="round" stroke-width="3.6" points="0 0 31.961 23.169 74.014 26.486 120.618 49 168 44.435"/>
        <circle cx="121.423" cy="46.5" r="5.7" fill="#FFF" fill-rule="nonzero" stroke="#1972F4" stroke-width="3.6"/>
        <circle cx="73.423" cy="25.5" r="5.7" fill="#FFF" fill-rule="nonzero" stroke="#1972F4" stroke-width="3.6"/>
        <circle cx="31.423" cy="21.5" r="5.7" fill="#FFF" fill-rule="nonzero" stroke="#1972F4" stroke-width="3.6"/>
      </g>
    </g>
    <g transform="matrix(-1 0 0 1 447 0)">
      <rect width="29" height="187" x="78" y="263" fill="#001955" fill-rule="nonzero" filter="url(#illustration-marketing-j)" opacity=".3"/>
      <g transform="matrix(-1 0 0 1 217 0)">
        <g transform="rotate(9 47.12 668.228)">
          <path fill="#FFEDD5" d="M23.9305745,0 L24.1712225,0 C37.3877138,-2.4275185e-15 48.101797,10.7127082 48.101797,23.9275034 C48.101797,37.1422986 37.3877138,47.8550068 24.1712225,47.8550068 L23.9305745,47.8550068 C10.7140831,47.8550068 1.61855338e-15,37.1422986 0,23.9275034 C-1.61855338e-15,10.7127082 10.7140831,2.4275185e-15 23.9305745,0 Z"/>
          <path fill="#FDBA5F" d="M26.2000273,27.689963 C26.2000273,27.0213949 26.0310193,26.4967037 25.6929982,26.1158737 C25.3549771,25.7350438 24.7612823,25.3753764 23.911896,25.0368609 C23.0625097,24.6983454 22.2781392,24.3556035 21.558761,24.0086251 C20.8393828,23.6616467 20.2196868,23.2596655 19.6996543,22.8026696 C19.1796219,22.3456736 18.7809363,21.8167511 18.5035857,21.215886 C18.2262351,20.6150209 18.0875618,19.8872235 18.0875618,19.0324718 C18.0875618,17.6022437 18.5815852,16.4238042 19.5696469,15.4971179 C20.5577085,14.5704317 21.8751042,14.0309307 23.5218736,13.8785987 L23.5218736,11.200108 L25.5889922,11.200108 L25.5889922,13.9293758 C27.1750911,14.1578737 28.4209835,14.7946965 29.3267066,15.8398632 C30.2324298,16.8850299 30.6852846,18.2115677 30.6852846,19.8195164 L26.2910325,19.8195164 C26.2910325,18.9393761 26.1176909,18.2623552 25.7710027,17.7884334 C25.4243144,17.3145117 24.930291,17.0775544 24.2889176,17.0775544 C23.7168819,17.0775544 23.2726942,17.2531567 22.9563412,17.6043665 C22.6399881,17.9555764 22.4818139,18.4400695 22.4818139,19.0578603 C22.4818139,19.684114 22.6638226,20.1813013 23.0278453,20.5494369 C23.391868,20.9175725 23.9768957,21.2687771 24.782946,21.6030612 C25.5889962,21.9373453 26.3495323,22.2843185 27.0645769,22.6439912 C27.7796215,23.003664 28.3971507,23.4119922 28.9171832,23.8689882 C29.4372156,24.3259841 29.8445682,24.8591381 30.1392533,25.468466 C30.4339383,26.077794 30.5812786,26.8098228 30.5812786,27.6645745 C30.5812786,29.1117284 30.1110897,30.2922836 29.1706977,31.2062755 C28.2303057,32.1202674 26.949745,32.6534213 25.3289773,32.8057533 L25.3289773,35.3573013 L23.2618587,35.3573013 L23.2618587,32.7930591 C21.3724075,32.5984126 19.9228388,31.9658212 18.9131092,30.8952659 C17.9033796,29.8247105 17.3985223,28.4135451 17.3985223,26.6617273 L21.7797737,26.6617273 C21.7797737,27.6264965 21.9986174,28.360641 22.4363113,28.8641829 C22.8740053,29.3677247 23.4958681,29.6194919 24.3019184,29.6194919 C24.8912885,29.6194919 25.3549771,29.448121 25.6929982,29.105374 C26.0310193,28.762627 26.2000273,28.2908281 26.2000273,27.689963 Z"/>
        </g>
        <g transform="rotate(-10 80.138 -300.449)">
          <path fill="#FFEDD5" d="M23.5859457,0 L24.6719696,-5.230224e-15 C37.6981277,-7.62278335e-15 48.2579153,10.5584324 48.2579153,23.5829189 C48.2579153,36.6074054 37.6981277,47.1658378 24.6719696,47.1658378 L23.5859457,47.1658378 C10.5597876,47.1658378 1.59524429e-15,36.6074054 0,23.5829189 C-1.59524429e-15,10.5584324 10.5597876,-2.83766465e-15 23.5859457,0 Z"/>
          <path fill="#FDBA5F" d="M33.0135183,17.6980525 C34.4196101,19.5295399 35.2653997,21.8249862 35.2653997,24.3219772 C35.2653997,30.2885142 30.4774836,35.1431733 24.5929761,35.1431733 C18.7084685,35.1431733 13.9205525,30.2885142 13.9205525,24.3219772 C13.9205525,18.8139883 18.0027545,14.2636754 23.2589231,13.5941139 L23.2589231,12.8783229 L20.5908172,12.8783229 L20.5908172,10.1730238 L28.596469,10.1730238 L28.596469,12.8783229 L25.9283631,12.8783229 L25.9283631,13.5954665 C27.8720782,13.8416487 29.6517049,14.6221275 31.1271674,15.7854061 L32.9895053,13.8971074 L34.8758562,15.8097538 L33.0135183,17.6980525 Z M24.5929761,32.4378742 C29.0073573,32.4378742 32.5972938,28.7978944 32.5972938,24.3219772 C32.5972938,19.8460599 29.0073573,16.2060801 24.5929761,16.2060801 C20.1785949,16.2060801 16.5886584,19.8460599 16.5886584,24.3219772 C16.5886584,28.7978944 20.1785949,32.4378742 24.5929761,32.4378742 Z M24.1289577,18.4408923 C26.2182416,18.5763406 27.8381605,19.3744129 28.9887141,20.8351092 C30.1392678,22.2958054 30.6831429,24.0592723 30.6203394,26.1255098 L24.1289577,26.1255098 L24.1289577,18.4408923 Z"/>
        </g>
        <g fill-rule="nonzero" stroke="url(#illustration-marketing-k)" stroke-width="1.5" opacity=".312" transform="translate(53.143 55.61)">
          <path d="M45.708628 152.435831C55.6812133 130.330438 62.768419 111.863089 66.9702452 97.0337841 71.1720713 82.204479 77.3917963 65.9975511 85.6294201 48.4130003M45.708628 152.435831C51.4115983 128.102023 55.3385935 103.813931 57.4896135 79.5715566 59.6406336 55.3291822 63.6344305 30.6279283 69.4710042 5.46779479"/>
          <path d="M40.9561528,152.435831 L45.708628,48.4130003" transform="matrix(-1 0 0 1 86.665 0)"/>
          <path d="M12.4413013,152.435831 C20.2527334,128.102023 25.4028943,106.459542 27.8917839,87.5083894 C30.3806735,68.5572369 36.6364532,39.6198088 46.6591231,0.696105291" transform="matrix(-1 0 0 1 59.1 0)"/>
          <path d="M0.0848656294,152.435831 C13.476662,125.078145 22.5619998,103.435664 27.340879,87.5083894 C32.1197583,71.5811146 38.559173,53.1414035 46.6591231,32.189256" transform="matrix(-1 0 0 1 46.744 0)"/>
        </g>
        <g transform="rotate(-21 102.937 19.075)">
          <path fill="#FFF5E5" d="M34.1587601,67.6638299 L34.9213687,70.2766944 L27.4285714,70.2766944 L28.532705,67.2621979 C14.9103211,64.3179926 2.32549235e-11,46.8297786 2.32530124e-11,31.2264607 C2.32509001e-11,13.9805627 13.982357,-1.27589071e-12 31.2304686,-1.27905873e-12 L31.4396613,-1.27905873e-12 C48.6877728,-1.28222675e-12 62.6701299,13.9805627 62.6701299,31.2264607 C62.6701299,47.9853323 47.6990083,66.8416914 34.1587601,67.6638299 Z"/>
          <path fill="#FDBA5F" d="M42.2183449,23.629773 C40.8853117,22.2888601 39.0769548,21.5354901 37.1913185,21.5354901 C35.3056821,21.5354901 33.4973253,22.2888601 32.164292,23.629773 L30.7944596,25.0070559 L29.4246271,23.629773 C26.6482771,20.8383225 22.1469243,20.8383226 19.3705742,23.6297731 C16.5942242,26.4212236 16.5942242,30.9470591 19.3705742,33.7385097 L20.7404066,35.1157926 L30.7944596,45.2245293 L40.8485125,35.1157926 L42.2183449,33.7385097 C43.5520041,32.3982261 44.3012987,30.5800337 44.3012987,28.6841414 C44.3012987,26.7882491 43.5520041,24.9700566 42.2183449,23.629773 Z"/>
        </g>
        <g transform="rotate(16 -34.992 481.071)">
          <path fill="#FFF5E5" d="M30.9167657,71.8416302 L31.0716083,75.6042939 L23.8051213,73.776785 L25.3895827,71.4287386 C12.6908925,67.7570812 -3.19275888e-12,46.8759869 -3.19469674e-12,31.0541836 C-3.19679738e-12,13.9034316 13.905216,-5.74155467e-11 31.0581693,-5.74186972e-11 L31.391122,-5.74186972e-11 C48.5440753,-5.74218478e-11 62.4492914,13.9034316 62.4492914,31.0541836 C62.4492914,47.3728276 44.2682915,69.8883058 30.9167657,71.8416302 Z"/>
          <path fill="#FDBA5F" d="M17.2255768,39.2488166 C16.2229271,39.2488166 15.320556,39.1357677 14.5184362,38.9096664 C13.7163165,38.6835652 13.0278407,38.3577183 12.4529883,37.9321159 C11.8781358,37.5065136 11.4336344,36.9778436 11.1194709,36.3460901 C10.8053073,35.7143366 10.6348594,34.9994684 10.6081221,34.201464 L14.0572197,34.201464 C14.1508003,35.0127685 14.4616171,35.6046129 14.9896792,35.9770149 C15.5177414,36.349417 16.2630331,36.5356152 17.2255768,36.5356152 C17.5597934,36.5356152 17.8806364,36.5023655 18.1881157,36.4358652 C18.4955949,36.3693648 18.7696484,36.2662908 19.0102843,36.12664 C19.2509202,35.9869892 19.4414208,35.8074409 19.5817917,35.5879897 C19.7221627,35.3685385 19.7923471,35.105866 19.7923471,34.7999643 C19.7923471,34.4807626 19.7154785,34.2147651 19.5617388,34.0019639 C19.4079992,33.7891628 19.1840775,33.6096145 18.8899669,33.4633137 C18.5958564,33.3170128 18.2349079,33.1873391 17.8071107,33.0742885 C17.3793135,32.9612378 16.8980489,32.8448639 16.3633024,32.7251633 C15.6413946,32.5655624 14.9596031,32.3860141 14.3179073,32.186513 C13.6762115,31.9870119 13.1147361,31.7243394 12.6334643,31.3984876 C12.1521925,31.0726358 11.7745334,30.6603397 11.5004758,30.161587 C11.2264183,29.6628342 11.0893915,29.0277653 11.0893915,28.256361 C11.0893915,27.4849568 11.2364446,26.8199631 11.5305552,26.26136 C11.8246657,25.7027569 12.2324038,25.2405863 12.7537816,24.8748343 C13.2751595,24.5090823 13.8901087,24.2364349 14.5986478,24.0568839 C15.3071869,23.8773329 16.0758735,23.7875588 16.9047305,23.7875588 C17.7202189,23.7875588 18.475537,23.8806579 19.1707074,24.0668589 C19.8658779,24.2530599 20.4674586,24.5323573 20.9754678,24.9047593 C21.483477,25.2771614 21.8912151,25.739332 22.1986943,26.291285 C22.5061735,26.8432381 22.6866478,27.484957 22.7401224,28.216461 L19.3912893,28.216461 C19.2977086,27.6312578 19.0303394,27.1790621 18.5891735,26.8598603 C18.1480077,26.5406586 17.5531111,26.3810601 16.8044661,26.3810601 C16.095927,26.3810601 15.5277673,26.5207087 15.0999701,26.8000103 C14.6721729,27.0793118 14.4582776,27.4517083 14.4582776,27.9172108 C14.4582776,28.2098125 14.5384883,28.4492102 14.6989123,28.6354112 C14.8593362,28.8216122 15.0932843,28.9845357 15.4007635,29.1241865 C15.7082428,29.2638372 16.0859018,29.3868611 16.533752,29.4932616 C16.9816022,29.5996622 17.4996301,29.7193611 18.0878512,29.8523618 C18.7562843,29.9986626 19.4013126,30.174886 20.0229554,30.3810371 C20.6445982,30.5871882 21.1927051,30.8631606 21.6672926,31.2089625 C22.1418801,31.5547644 22.5228813,31.9870103 22.8103075,32.5057132 C23.0977338,33.024416 23.2414447,33.6761098 23.2414447,34.4608142 C23.2414447,35.2322184 23.0877074,35.9138369 22.7802282,36.5056902 C22.472749,37.0975435 22.0483003,37.5962887 21.5068695,38.001941 C20.9654387,38.4075932 20.3304367,38.7168152 19.6018446,38.9296164 C18.8732525,39.1424176 18.0811712,39.2488166 17.2255768,39.2488166 Z M25.2066283,24.0469089 L36.3961426,24.0469089 L36.3961426,26.8798103 L28.6156201,26.8798103 L28.6156201,29.8324118 L35.3533921,29.8324118 L35.3533921,32.5256632 L28.6156201,32.5256632 L28.6156201,35.9770149 L36.5365128,35.9770149 L36.5365128,38.8897164 L25.2066283,38.8897164 L25.2066283,24.0469089 Z M45.3998916,39.2488166 C44.2635553,39.2488166 43.240868,39.0559684 42.3317989,38.6702663 C41.4227299,38.2845642 40.6473591,37.7459193 40.0056633,37.0543155 C39.3639676,36.3627117 38.8726766,35.5447694 38.5317757,34.6004642 C38.1908748,33.656159 38.0204269,32.6320688 38.0204269,31.5281627 C38.0204269,30.4109565 38.1908748,29.3802163 38.5317757,28.4359111 C38.8726766,27.4916059 39.3639676,26.6769886 40.0056633,25.9920349 C40.6473591,25.3070811 41.4227299,24.7684362 42.3317989,24.3760841 C43.240868,23.9837319 44.2635553,23.7875588 45.3998916,23.7875588 C46.5228592,23.7875588 47.5388623,23.9837319 48.4479313,24.3760841 C49.3570004,24.7684362 50.1323711,25.3070811 50.7740669,25.9920349 C51.4157627,26.6769886 51.9070537,27.4916059 52.2479546,28.4359111 C52.5888555,29.3802163 52.7593033,30.4109565 52.7593033,31.5281627 C52.7593033,32.6320688 52.5888555,33.656159 52.2479546,34.6004642 C51.9070537,35.5447694 51.4157627,36.3627117 50.7740669,37.0543155 C50.1323711,37.7459193 49.3570004,38.2845642 48.4479313,38.6702663 C47.5388623,39.0559684 46.5228592,39.2488166 45.3998916,39.2488166 Z M45.4199445,36.4558152 C46.0616403,36.4558152 46.6231157,36.3294664 47.1043875,36.076765 C47.5856593,35.8240636 47.9867132,35.4782669 48.3075611,35.0393645 C48.628409,34.600462 48.8690413,34.081767 49.0294652,33.4832637 C49.1898892,32.8847604 49.2700999,32.2330666 49.2700999,31.5281627 C49.2700999,30.8232588 49.1898892,30.16824 49.0294652,29.5630867 C48.8690413,28.9579333 48.628409,28.4292634 48.3075611,27.9770609 C47.9867132,27.5248584 47.5856593,27.1724117 47.1043875,26.9197103 C46.6231157,26.667009 46.0616403,26.5406602 45.4199445,26.5406602 C44.7782487,26.5406602 44.2134312,26.667009 43.725475,26.9197103 C43.2375188,27.1724117 42.8297808,27.5248584 42.5022485,27.9770609 C42.1747163,28.4292634 41.9273998,28.9579333 41.7602915,29.5630867 C41.5931832,30.16824 41.5096303,30.8232588 41.5096303,31.5281627 C41.5096303,32.2330666 41.5931832,32.8847604 41.7602915,33.4832637 C41.9273998,34.081767 42.1747163,34.600462 42.5022485,35.0393645 C42.8297808,35.4782669 43.2375188,35.8240636 43.725475,36.076765 C44.2134312,36.3294664 44.7782487,36.4558152 45.4199445,36.4558152 Z"/>
        </g>
        <g transform="translate(57.429 29.996)">
          <path fill="#FFF6E9" d="M40.1165957,83.8029898 L40.9213687,86.5603187 L33.4285714,86.5603187 L34.4387564,83.8023199 C16.7500543,81.4186528 -3.4577434e-13,56.711353 -3.48165941e-13,37.1849581 C-3.50681282e-13,16.6482728 16.6504096,3.21942373e-14 37.1897307,3.45112942e-14 L37.578178,2.84217094e-14 C58.1174991,2.46491815e-14 74.7679087,16.6482728 74.7679087,37.1849581 C74.7679087,56.7131836 56.6056215,81.4232855 40.1165957,83.8029898 Z"/>
          <path fill="#FDBA5F" d="M12.8698578,16.6875419 L19.697444,16.6875419 L19.697444,32.5652033 L12.8698578,32.5652033 L12.8698578,16.6875419 Z M2.14079379,22.6416649 L8.96837999,22.6416649 L8.96837999,32.5652033 L2.14079379,32.5652033 L2.14079379,22.6416649 Z M23.5989219,13.7104804 L30.4265081,13.7104804 L30.4265081,32.5652033 L23.5989219,32.5652033 L23.5989219,13.7104804 Z M0.426508071,14.0832884 L9.17940458,5.96356821 L17.3410887,9.42637807 L24.9022243,3.75696168 L22.6873952,1.47945132 L31.2836509,0.854987505 L30.1517569,8.49194387 L27.7694355,6.04356455 L17.8797113,13.45039 L9.80326777,10.0072529 L3.00839428,16.281579 L0.426508071,14.0832884 Z" transform="translate(20.145 22.285)"/>
        </g>
      </g>
      <path fill="url(#illustration-marketing-l)" fill-rule="nonzero" d="M197.760331,497 C225.452556,496.166837 223.251102,495.00017 191.155967,493.5 C159.060831,491.99983 111.342176,490.833163 48,490 L63.9926851,497 L197.760331,497 Z" opacity=".597"/>
      <g transform="matrix(-1 0 0 1 127.833 195.597)">
        <g transform="scale(-1 1) rotate(-70 31.313 156.574)">
          <path fill="#F5AF95" d="M11.3535255,4.28593415 C11.2316901,3.36705659 12.0726521,-1.77351134 5.71138409,2.13309315 C3.0784505,3.75003968 5.95005872,11.7431645 5.74522842,15.9358183 C7.15577801,16.3396984 8.6214266,16.5116731 10.0672462,16.4447138 C9.94612733,14.6969265 13.2742392,8.20003265 13.2715984,7.12303342 C13.2689576,6.04603419 11.5005933,6.80656869 11.2896829,7.1181771 C11.4571616,6.19111015 11.4788626,5.2315152 11.3535255,4.28593415 Z" transform="scale(-1 1) rotate(49 0 -11.028)"/>
          <path fill="#02184C" fill-rule="nonzero" d="M10.4026744,14.0772387 L17.5759978,11.4534053 L39.7523443,33.1476387 L67.7694472,36.9514869 L63.7,57.9193548 L39.7523443,47.2212416 C34.5385578,44.4825905 30.5197833,41.261363 27.6960208,37.557559 C24.8722582,33.853755 19.1078094,26.0269816 10.4026744,14.0772387 Z"/>
        </g>
        <path fill="#1E3E88" fill-rule="nonzero" d="M63.5348498,73.300895 C56.511017,71.8419639 51.3601055,71.0719514 48.0821154,70.9908576 C44.8041253,70.9097637 40.2390813,71.5346149 34.3869836,72.8654112 L33.3666667,80.2494269 L67.633743,82.1466554 L63.5348498,73.300895 Z"/>
        <g transform="translate(15.167 156.774)">
          <g transform="translate(22.1)">
            <mask id="illustration-marketing-o" fill="#fff">
              <use xlink:href="#illustration-marketing-m"/>
            </mask>
            <use fill="#0E4DE3" fill-rule="nonzero" xlink:href="#illustration-marketing-m"/>
            <path fill="url(#illustration-marketing-n)" fill-rule="nonzero" d="M22.5333333,60.5322581 C19.108497,67.3913229 16.2196081,67.3913229 13.8666667,60.5322581 C11.5137252,53.6731933 9.82948039,40.3420414 8.81393229,20.5388024 L15.5404177,13.468894 L22.5333333,60.5322581 Z" mask="url(#illustration-marketing-o)" opacity=".334"/>
          </g>
          <polygon fill="#0E4DE3" fill-rule="nonzero" points="4.401 3.454 36.92 1.77 28.747 58.102 31.896 129.861 21.329 129.122 10.013 65.075" transform="scale(-1 1) rotate(-4 0 657.456)"/>
          <path stroke="#001955" stroke-linecap="square" stroke-width="1.5" d="M35.3166667,36.7983871 L38.35,21.5564516"/>
        </g>
        <path fill="#FDBA5F" fill-rule="nonzero" d="M29.4666667,77.1727297 C22.5561443,81.4309548 22.5561443,105.557879 22.3412109,108.436154 C21.6686776,117.3534 21.6763118,157.741764 22.3412109,157.963494 C39.5818686,163.712917 69.3975746,162.038279 71.0719746,156.362849 C73.3595745,148.601281 70.9751608,134.754221 71.0719746,120.007588 C71.1698492,105.099366 70.8312732,88.8133272 65.3850911,79.1934224 C61.7184681,72.7168551 36.3771891,72.9145046 29.4666667,77.1727297 Z"/>
        <path fill="#F5AF95" d="M4.4391276,3.07220262 C2.33509674,5.87795132 5.6702669,9.35489645 5.45576126,13.5599052 C6.86135577,13.9614608 8.32246132,14.1303202 9.76437788,14.0596189 C9.64787321,12.3071887 12.9825094,5.78375188 12.9825094,4.70371475 C12.9825094,3.62367762 11.2172596,4.39070724 11.0061805,4.70371475 C11.1113962,4.12559422 10.8639085,0.849224511 9.12539063,0.273027974 C8.06692454,-0.0777791637 6.00437233,0.984931259 4.4391276,3.07220262 Z"/>
        <path fill="#001955" fill-rule="nonzero" d="M5.06355998,9.14516129 L9.71590424,11.7580645 L12.5903082,54 L32.7968933,75.8898722 L24.56356,95.4866464 C9.90566016,72.8248014 2.10566016,58.9959193 1.16355998,54 C0.221459807,49.0040807 1.52145981,34.0524678 5.06355998,9.14516129 Z"/>
        <path fill="#001955" fill-rule="nonzero" d="M22.5457475,92.2135237 C19.4234918,106.042529 19.8861015,117.240567 19.8847415,133.022717 C19.8838349,143.54415 19.3572427,152.990498 18.3049651,161.36176 C31.9931066,163.098934 38.8372755,162.828147 38.8374719,160.549399 C38.8377664,157.131277 36.4532945,124.261654 37.6170606,97.8086817 C38.3929047,80.1733668 37.3800552,71.9876568 34.5785122,73.2515517 C28.6381728,76.6735298 24.6272513,82.9941871 22.5457475,92.2135237 Z" transform="rotate(-1 28.571 117.807)"/>
        <path fill="#001955" fill-rule="nonzero" d="M1.12545413,19.5967742 C-1.40681766,29.7085588 1.12545413,45.0294515 1.12545413,60.8116251 C1.12545413,71.3330741 1.12545413,79.9496292 1.12545413,86.6612903 C6.36705676,88.9400417 8.98785807,88.9400417 8.98785807,86.6612903 C8.98785807,83.2431632 10.4922526,35.7581134 10.4922526,16.5483871 C10.4922526,9.25287243 10.7503906,3.87930657 11.2666667,0.427689504 C6.1940395,6.46588958 2.81363532,12.8555845 1.12545413,19.5967742 Z" transform="matrix(-1 0 0 1 74.533 72.726)"/>
        <g transform="translate(32.5 33.532)">
          <g transform="translate(10.4 25.694)">
            <mask id="illustration-marketing-r" fill="#fff">
              <use xlink:href="#illustration-marketing-p"/>
            </mask>
            <use fill="#F5AF95" xlink:href="#illustration-marketing-p"/>
            <polyline fill="url(#illustration-marketing-q)" fill-rule="nonzero" points="-.052 13.962 -.692 11.293 11.316 10.445 11.316 14.709" mask="url(#illustration-marketing-r)" opacity=".534"/>
          </g>
          <g transform="rotate(-3 28.977 -5.811)">
            <path fill="#F5AF95" d="M21.7001839,14.8805277 C23.2326971,17.3887438 23.3743919,21.4065056 22.1252683,26.9338131 C21.8418787,33.057071 21.1125135,36.1632063 19.9371726,36.2522192 C14.3906245,36.9582578 10.889869,37.1748828 9.43490602,36.9020942 C7.25246152,36.4929113 8.47863908,36.9020942 4.55641598,29.9680301 C0.634192879,23.033966 1.33523698,21.7380581 3.42519593,17.0085109 C5.51515488,12.2789637 8.75398614,11.9813921 12.7080628,11.52097 C16.6621395,11.0605478 19.401414,11.1182036 21.7001839,14.8805277 Z"/>
            <path fill="#0A225B" d="M26,14.5460571 C26,20.5222133 23.9585408,25.5533651 22.2660193,26.4922975 C22.3456813,24.3649675 22.6924702,14.110979 19.1100554,14.378123 C16.7261385,14.5555642 5.23946264,14.0407022 4.38993215,17.0041666 C3.70269825,19.4045334 5.30922254,28.8411328 5.29436021,31.346262 C5.29257674,31.6644776 -0.0328206462,26.2218893 0.185835109,16.3349985 C0.411448968,6.13348519 6.00793843,6.93644966 11.3425203,3.22267371 C22.4381583,-4.50177682 26,2.60263982 26,14.5460571 Z"/>
            <path fill="#F5AF95" d="M6.05739504,24.2681421 C6.14232193,25.8207844 5.63436302,27.2303742 4.92129769,27.4152957 C4.20823235,27.6002171 3.56246757,26.4941776 3.47593829,24.9415353 C3.39101141,23.388893 3.89897031,21.9793032 4.61203564,21.7943818 C5.32510098,21.6094603 5.97246816,22.7154999 6.05739504,24.2681421"/>
          </g>
        </g>
        <path fill="#001955" d="M53.5149333,300.41071 L82.836,300.327097 C83.2346667,300.327097 83.5050667,299.922968 83.356,299.550194 L81.3522667,294.522968 C80.5896,292.610323 78.9498667,291.188903 76.9565333,290.715097 L64.2616,287.687613 L63.9496,285.241935 L52.4333333,285.447484 L52.9498667,299.863742 C52.9602667,300.170323 53.2098667,300.41071 53.5149333,300.41071"/>
        <polygon fill="#E6EDF5" fill-rule="nonzero" points="52 283.065 63.899 283.771 63.899 286.384 52.033 286.384"/>
        <path fill="#001955" d="M21.0149333,300.41071 L50.336,300.327097 C50.7346667,300.327097 51.0050667,299.922968 50.856,299.550194 L48.8522667,294.522968 C48.0896,292.610323 46.4498667,291.188903 44.4565333,290.715097 L31.7616,287.687613 L31.4496,285.241935 L19.9333333,285.447484 L20.4498667,299.863742 C20.4602667,300.170323 20.7098667,300.41071 21.0149333,300.41071"/>
        <polygon fill="#E6EDF5" fill-rule="nonzero" points="19.5 282.194 31.399 282.9 31.399 285.513 19.533 285.513"/>
      </g>
    </g>
  </g>
</svg>
